<svg width="200" height="200" viewBox="0 0 16 16" xmlns="http://www.w3.org/2000/svg" shape-rendering="crispEdges">
  <rect x="4" y="6" width="8" height="5" fill="#7B2CBF" />
  <rect x="5" y="5" width="6" height="7" fill="#7B2CBF" />
  
  <rect x="1" y="4" width="2" height="3" fill="#5A189A" />
  <rect x="2" y="7" width="1" height="2" fill="#5A189A" />
  
  <rect x="13" y="4" width="2" height="3" fill="#5A189A" />
  <rect x="13" y="7" width="1" height="2" fill="#5A189A" />
  
  <rect x="2" y="10" width="2" height="1" fill="#7B2CBF" />
  <rect x="1" y="11" width="2" height="1" fill="#7B2CBF" />
  
  <rect x="12" y="10" width="2" height="1" fill="#7B2CBF" />
  <rect x="13" y="11" width="2" height="1" fill="#7B2CBF" />
  
  <rect x="5" y="3" width="2" height="2" fill="#7B2CBF" /> <rect x="9" y="3" width="2" height="2" fill="#7B2CBF" /> <rect x="5" y="3" width="1" height="1" fill="white" />
  <rect x="9" y="3" width="1" height="1" fill="white" />
  <rect x="6" y="3" width="1" height="1" fill="black" />
  <rect x="10" y="3" width="1" height="1" fill="black" />
  
  <rect x="5" y="6" width="1" height="1" fill="#F1FAEE" opacity="0.3" />
</svg>
